<svg xmlns="http://www.w3.org/2000/svg" xmlns:xlink="http://www.w3.org/1999/xlink" width="500" zoomAndPan="magnify" viewBox="0 0 375 374.999991" height="500" preserveAspectRatio="xMidYMid meet" version="1.2"><g id="e43900b116"><path style=" stroke:none;fill-rule:nonzero;fill:#4fb7f6;fill-opacity:1;" d="M 29.917969 330.230469 C 28.632812 327.769531 28.457031 325.199219 29.234375 322.328125 C 30.753906 319.570312 32.71875 317.707031 35.742188 317.394531 C 37.859375 317.175781 39.996094 317.035156 42.121094 317.035156 C 122.039062 317.011719 201.957031 317.015625 281.875 316.992188 C 284.523438 316.992188 287.167969 316.742188 289.816406 316.683594 C 293.910156 316.597656 296.574219 314.492188 298.355469 310.949219 C 299.726562 308.226562 299.953125 305.28125 299.960938 302.367188 C 300.019531 278.699219 300.003906 255.03125 299.980469 231.363281 C 299.976562 228.945312 299.835938 226.523438 299.632812 224.113281 C 299.328125 220.550781 295.78125 216.441406 292.515625 216.03125 C 289.378906 215.640625 286.210938 215.316406 283.054688 215.316406 C 218.359375 215.269531 153.660156 215.28125 88.964844 215.257812 C 86.316406 215.257812 83.664062 215.105469 81.019531 214.929688 C 72.035156 214.328125 64.644531 210.445312 58.804688 203.699219 C 56.570312 201.121094 54.769531 198.128906 54.25 194.683594 C 53.695312 190.996094 53.351562 187.265625 53.167969 183.539062 C 52.988281 179.84375 53.132812 176.132812 53.121094 172.429688 C 53.117188 171.820312 53.054688 171.210938 53.03125 170.75 C 48.332031 170.132812 43.871094 169.546875 39.386719 168.957031 C 39.332031 169.167969 39.25 169.332031 39.253906 169.496094 C 39.445312 179.363281 38.742188 189.246094 39.902344 199.097656 C 40.964844 208.148438 45.328125 215.355469 52.21875 220.996094 C 58.667969 226.273438 66.453125 228.386719 74.605469 228.40625 C 123.097656 228.527344 171.59375 228.46875 220.085938 228.472656 C 239.066406 228.472656 258.046875 228.472656 277.03125 228.480469 C 282.246094 228.484375 285.105469 230.75 286.011719 235.726562 C 286.328125 237.472656 286.429688 239.277344 286.433594 241.054688 C 286.464844 258.300781 286.464844 275.546875 286.4375 292.792969 C 286.433594 294.859375 286.25 296.933594 286.089844 299 C 285.878906 301.699219 284.625 303.761719 281.980469 304.605469 C 280.636719 305.03125 279.152344 305.175781 277.730469 305.179688 C 224.492188 305.207031 171.25 305.207031 118.011719 305.207031 C 88.847656 305.203125 59.679688 305.191406 30.515625 305.183594 C 29.71875 303.371094 28.828125 301.695312 28.734375 299.542969 C 28.523438 294.761719 32.757812 291.210938 36.984375 291.226562 C 76.855469 291.382812 116.722656 291.363281 156.59375 291.304688 C 192.394531 291.253906 228.191406 291.09375 263.992188 290.953125 C 265.53125 290.949219 267.101562 290.832031 268.597656 290.492188 C 270.574219 290.050781 271.375 289.078125 271.484375 285.855469 C 271.648438 281.117188 271.527344 276.367188 271.527344 271.625 C 271.527344 264.316406 271.394531 257.003906 271.578125 249.699219 C 271.683594 245.570312 268.820312 243.375 265.195312 243.378906 C 235.335938 243.421875 205.476562 243.445312 175.617188 243.390625 C 138.777344 243.324219 101.933594 243.210938 65.09375 243.007812 C 60.527344 242.980469 56.085938 241.746094 51.851562 239.960938 C 45.128906 237.121094 39.339844 232.925781 34.597656 227.421875 C 29.390625 221.375 25.398438 214.652344 24.644531 206.453125 C 24.394531 203.71875 24.007812 200.980469 23.988281 198.246094 C 23.914062 187.195312 23.839844 176.136719 24.050781 165.089844 C 24.097656 162.683594 22.691406 161.777344 21.289062 160.769531 C 17.878906 158.324219 16.429688 154.824219 15.65625 150.941406 C 15.355469 149.4375 15.292969 147.867188 15.292969 146.324219 C 15.269531 124.855469 15.179688 103.386719 15.324219 81.921875 C 15.382812 73.484375 17.484375 65.429688 20.929688 57.695312 C 23.445312 52.046875 26.945312 47.171875 31.472656 43.023438 C 37.667969 37.355469 44.835938 33.601562 53.121094 31.894531 C 57.269531 31.042969 61.410156 30.886719 65.609375 30.890625 C 105.246094 30.914062 144.886719 30.902344 184.523438 30.894531 C 185.234375 30.894531 185.945312 30.789062 187.007812 30.703125 C 183.316406 26.003906 179.84375 21.628906 176.429688 17.210938 C 173.855469 13.882812 171.273438 10.550781 168.894531 7.085938 C 168.328125 6.261719 168.199219 4.757812 168.554688 3.824219 C 168.78125 3.230469 170.300781 2.746094 171.175781 2.84375 C 174.164062 3.171875 177.207031 3.496094 180.078125 4.332031 C 188.921875 6.914062 197.726562 9.652344 206.496094 12.488281 C 212.117188 14.304688 217.636719 16.425781 223.21875 18.363281 C 227.84375 19.96875 232.542969 21.367188 237.113281 23.101562 C 246.167969 26.535156 255.160156 30.117188 264.164062 33.667969 C 271.742188 36.652344 279.320312 39.632812 286.863281 42.707031 C 293.195312 45.289062 299.460938 48.035156 305.785156 50.636719 C 311.671875 53.058594 317.617188 55.34375 323.5 57.773438 C 326.871094 59.167969 330.171875 60.742188 333.511719 62.21875 C 339.296875 64.777344 345.132812 67.234375 350.851562 69.933594 C 352.59375 70.753906 354.148438 72.113281 355.558594 73.464844 C 356.703125 74.558594 356.367188 76.003906 355.167969 76.886719 C 353.480469 78.132812 351.699219 79.304688 349.820312 80.226562 C 345.261719 82.46875 340.65625 84.625 336.003906 86.671875 C 329.699219 89.445312 323.335938 92.089844 316.988281 94.765625 C 311.375 97.136719 305.757812 99.492188 300.128906 101.824219 C 295.027344 103.941406 289.914062 106.023438 284.804688 108.113281 C 276.683594 111.429688 268.5625 114.746094 260.433594 118.046875 C 254.46875 120.46875 248.484375 122.839844 242.527344 125.28125 C 236.90625 127.585938 231.347656 130.042969 225.695312 132.269531 C 213.890625 136.921875 202 141.324219 189.6875 144.496094 C 185.429688 145.589844 181.265625 147.0625 176.789062 146.863281 C 175.941406 146.824219 175.070312 146.714844 174.265625 146.460938 C 173.046875 146.070312 172.492188 144.105469 173.320312 142.847656 C 176.105469 138.601562 178.949219 134.390625 181.800781 130.183594 C 184.582031 126.078125 187.398438 121.996094 190.183594 117.894531 C 190.332031 117.675781 190.351562 117.371094 190.460938 117.015625 C 189.777344 117.015625 189.199219 117.015625 188.625 117.015625 C 164.84375 117.015625 141.058594 116.984375 117.277344 117.046875 C 113.5 117.054688 109.714844 117.390625 105.949219 117.738281 C 103.019531 118.011719 101.828125 120.640625 101.914062 123.292969 C 101.941406 124.242188 101.757812 125.195312 101.742188 126.148438 C 101.613281 133.476562 101.695312 140.816406 101.316406 148.132812 C 101.097656 152.292969 100.277344 156.59375 96.660156 159.324219 C 93.421875 161.769531 94.453125 165.027344 94.582031 168.023438 C 94.648438 169.550781 96.503906 169.925781 97.953125 170.125 C 98.464844 170.195312 98.992188 170.140625 99.515625 170.140625 C 135.621094 170.140625 171.730469 170.09375 207.839844 170.152344 C 242.886719 170.207031 277.933594 170.289062 312.980469 170.558594 C 319.214844 170.609375 325.328125 171.90625 330.476562 175.996094 C 334.042969 178.828125 336.394531 182.488281 338.167969 186.566406 C 339.816406 190.347656 340.269531 194.378906 340.269531 198.457031 C 340.28125 242.378906 340.257812 286.300781 340.304688 330.21875 C 340.3125 334.875 339.480469 339.300781 337.753906 343.585938 C 335.574219 349.003906 332.167969 353.476562 327.207031 356.601562 C 323.453125 358.964844 319.347656 360.253906 314.871094 360.847656 C 307.378906 361.84375 299.894531 361.421875 292.414062 361.425781 C 207.234375 361.476562 122.054688 361.429688 36.875 361.542969 C 32.667969 361.550781 28.582031 357.894531 28.746094 353.472656 C 28.824219 351.347656 29.480469 349.585938 30.605469 347.691406 C 32.386719 346.761719 33.941406 345.644531 35.65625 345.25 C 37.703125 344.777344 39.890625 344.8125 42.019531 344.8125 C 126.964844 344.792969 211.914062 344.796875 296.859375 344.753906 C 300.535156 344.753906 304.242188 344.542969 307.875 344.027344 C 311.535156 343.511719 314.789062 341.839844 317.335938 339.0625 C 322.03125 333.953125 323.917969 327.714844 323.914062 320.972656 C 323.878906 280.65625 323.734375 240.335938 323.597656 200.019531 C 323.582031 195.910156 321.476562 192.753906 318.382812 190.304688 C 315.15625 187.75 311.210938 187.191406 307.265625 187.1875 C 260.800781 187.140625 214.332031 187.191406 167.867188 187.136719 C 142.074219 187.105469 116.277344 186.941406 90.484375 186.792969 C 83.695312 186.753906 77.503906 180.375 77.414062 173.582031 C 77.390625 171.886719 77.148438 170.199219 77.003906 168.449219 C 73.117188 169.238281 69.476562 169.976562 65.480469 170.789062 C 65.644531 174.5625 65.574219 178.4375 66.042969 182.242188 C 66.667969 187.324219 69.0625 191.707031 72.828125 195.152344 C 78.0625 199.9375 84.460938 201.726562 91.441406 201.730469 C 157.753906 201.734375 224.066406 201.734375 290.382812 201.757812 C 293.144531 201.757812 295.957031 201.691406 298.660156 202.152344 C 302.34375 202.78125 305.542969 204.445312 308.117188 207.410156 C 311.347656 211.136719 311.742188 215.589844 311.753906 220.066406 C 311.839844 250.675781 311.804688 281.289062 311.785156 311.898438 C 311.785156 313.734375 311.410156 315.582031 311.507812 317.410156 C 311.796875 322.648438 305.371094 328.195312 301.15625 329.097656 C 297.03125 329.984375 292.734375 330.488281 288.515625 330.492188 C 203.046875 330.570312 117.578125 330.554688 32.109375 330.542969 C 31.378906 330.542969 30.648438 330.335938 29.917969 330.230469 M 169.3125 91.359375 C 173.460938 86.488281 175.65625 80.808594 176.019531 74.46875 C 176.527344 65.582031 173.488281 57.9375 167.070312 51.855469 C 160.074219 45.226562 151.574219 42.859375 142.109375 44.476562 C 126.695312 47.109375 116.222656 61.957031 118.800781 77.507812 C 121.261719 92.339844 135.117188 103.285156 150.464844 101.421875 C 157.96875 100.511719 164.183594 97.226562 169.3125 91.359375 Z M 169.3125 91.359375 "/><path style=" stroke:none;fill-rule:nonzero;fill:#3699ec;fill-opacity:1;" d="M 29.832031 330.34375 C 30.648438 330.335938 31.378906 330.542969 32.109375 330.542969 C 117.578125 330.554688 203.046875 330.570312 288.515625 330.492188 C 292.734375 330.488281 297.03125 329.984375 301.15625 329.097656 C 305.371094 328.195312 311.796875 322.648438 311.507812 317.410156 C 311.410156 315.582031 311.785156 313.734375 311.785156 311.898438 C 311.804688 281.289062 311.839844 250.675781 311.753906 220.066406 C 311.742188 215.589844 311.347656 211.136719 308.117188 207.410156 C 305.542969 204.445312 302.34375 202.78125 298.660156 202.152344 C 295.957031 201.691406 293.144531 201.757812 290.382812 201.757812 C 224.066406 201.734375 157.753906 201.734375 91.441406 201.730469 C 84.460938 201.726562 78.0625 199.9375 72.828125 195.152344 C 69.0625 191.707031 66.667969 187.324219 66.042969 182.242188 C 65.574219 178.4375 65.644531 174.5625 65.480469 170.789062 C 69.476562 169.976562 73.117188 169.238281 77.003906 168.449219 C 77.148438 170.199219 77.390625 171.886719 77.414062 173.582031 C 77.503906 180.375 83.695312 186.753906 90.484375 186.792969 C 116.277344 186.941406 142.074219 187.105469 167.867188 187.136719 C 214.332031 187.191406 260.800781 187.140625 307.265625 187.1875 C 311.210938 187.191406 315.15625 187.75 318.382812 190.304688 C 321.476562 192.753906 323.582031 195.910156 323.597656 200.019531 C 323.734375 240.335938 323.878906 280.65625 323.914062 320.972656 C 323.917969 327.714844 322.03125 333.953125 317.335938 339.0625 C 314.789062 341.839844 311.535156 343.511719 307.875 344.027344 C 304.242188 344.542969 300.535156 344.753906 296.859375 344.753906 C 211.914062 344.796875 126.964844 344.792969 42.019531 344.8125 C 39.890625 344.8125 37.703125 344.777344 35.65625 345.25 C 33.941406 345.644531 32.386719 346.761719 30.640625 347.574219 C 27.445312 347.742188 24.859375 346.90625 22.914062 344.308594 C 20.671875 341.320312 20.617188 338.171875 22.152344 335.011719 C 23.535156 332.160156 26.015625 330.671875 29.238281 330.546875 C 29.410156 330.539062 29.578125 330.488281 29.832031 330.34375 Z M 29.832031 330.34375 "/><path style=" stroke:none;fill-rule:nonzero;fill:#3699ec;fill-opacity:1;" d="M 30.363281 305.195312 C 59.679688 305.191406 88.847656 305.203125 118.011719 305.207031 C 171.25 305.207031 224.492188 305.207031 277.730469 305.179688 C 279.152344 305.175781 280.636719 305.03125 281.980469 304.605469 C 284.625 303.761719 285.878906 301.699219 286.089844 299 C 286.25 296.933594 286.433594 294.859375 286.4375 292.792969 C 286.464844 275.546875 286.464844 258.300781 286.433594 241.054688 C 286.429688 239.277344 286.328125 237.472656 286.011719 235.726562 C 285.105469 230.75 282.246094 228.484375 277.03125 228.480469 C 258.046875 228.472656 239.066406 228.472656 220.085938 228.472656 C 171.59375 228.46875 123.097656 228.527344 74.605469 228.40625 C 66.453125 228.386719 58.667969 226.273438 52.21875 220.996094 C 45.328125 215.355469 40.964844 208.148438 39.902344 199.097656 C 38.742188 189.246094 39.445312 179.363281 39.253906 169.496094 C 39.25 169.332031 39.332031 169.167969 39.386719 168.957031 C 43.871094 169.546875 48.332031 170.132812 53.03125 170.75 C 53.054688 171.210938 53.117188 171.820312 53.121094 172.429688 C 53.132812 176.132812 52.988281 179.84375 53.167969 183.539062 C 53.351562 187.265625 53.695312 190.996094 54.25 194.683594 C 54.769531 198.128906 56.570312 201.121094 58.804688 203.699219 C 64.644531 210.445312 72.035156 214.328125 81.019531 214.929688 C 83.664062 215.105469 86.316406 215.257812 88.964844 215.257812 C 153.660156 215.28125 218.359375 215.269531 283.054688 215.316406 C 286.210938 215.316406 289.378906 215.640625 292.515625 216.03125 C 295.78125 216.441406 299.328125 220.550781 299.632812 224.113281 C 299.835938 226.523438 299.976562 228.945312 299.980469 231.363281 C 300.003906 255.03125 300.019531 278.699219 299.960938 302.367188 C 299.953125 305.28125 299.726562 308.226562 298.355469 310.949219 C 296.574219 314.492188 293.910156 316.597656 289.816406 316.683594 C 287.167969 316.742188 284.523438 316.992188 281.875 316.992188 C 201.957031 317.015625 122.039062 317.011719 42.121094 317.035156 C 39.996094 317.035156 37.859375 317.175781 35.742188 317.394531 C 32.71875 317.707031 30.753906 319.570312 29.230469 322.183594 C 25.679688 322.074219 23.210938 320.359375 21.875 317.242188 C 20.589844 314.238281 20.886719 311.28125 22.851562 308.566406 C 24.671875 306.046875 27.1875 305.070312 30.363281 305.195312 Z M 30.363281 305.195312 "/><path style=" stroke:none;fill-rule:nonzero;fill:#f7fcfd;fill-opacity:1;" d="M 169.234375 91.457031 C 164.183594 97.226562 157.96875 100.511719 150.464844 101.421875 C 135.117188 103.285156 121.261719 92.339844 118.800781 77.507812 C 116.222656 61.957031 126.695312 47.109375 142.109375 44.476562 C 151.574219 42.859375 160.074219 45.226562 167.070312 51.855469 C 173.488281 57.9375 176.527344 65.582031 176.019531 74.46875 C 175.65625 80.808594 173.460938 86.488281 169.234375 91.457031 M 133.007812 75.175781 C 133.003906 75.40625 132.949219 75.648438 133 75.867188 C 134.953125 84.085938 142.40625 89.671875 151.160156 87.457031 C 161.835938 84.75 165.027344 73.246094 159.929688 65.113281 C 154.359375 56.21875 140.34375 56.292969 135.078125 65.496094 C 133.4375 68.363281 132.136719 71.402344 133.007812 75.175781 Z M 133.007812 75.175781 "/><path style=" stroke:none;fill-rule:nonzero;fill:#11162b;fill-opacity:1;" d="M 132.996094 75.023438 C 132.136719 71.402344 133.4375 68.363281 135.078125 65.496094 C 140.34375 56.292969 154.359375 56.21875 159.929688 65.113281 C 165.027344 73.246094 161.835938 84.75 151.160156 87.457031 C 142.40625 89.671875 134.953125 84.085938 133 75.867188 C 132.949219 75.648438 133.003906 75.40625 132.996094 75.023438 Z M 132.996094 75.023438 "/></g></svg>
